<?xml version="1.0" encoding="UTF-8" standalone="no"?>
<svg
   xmlns:dc="http://purl.org/dc/elements/1.1/"
   xmlns:cc="http://creativecommons.org/ns#"
   xmlns:rdf="http://www.w3.org/1999/02/22-rdf-syntax-ns#"
   xmlns:svg="http://www.w3.org/2000/svg"
   xmlns="http://www.w3.org/2000/svg"
   id="svg2334"
   version="1.1"
   viewBox="0 0 90 90"
   height="90mm"
   width="90mm">
  <defs
     id="defs2328" />
  <metadata
     id="metadata2331">
    <rdf:RDF>
      <cc:Work
         rdf:about="">
        <dc:format>image/svg+xml</dc:format>
        <dc:type
           rdf:resource="http://purl.org/dc/dcmitype/StillImage" />
        <dc:title></dc:title>
      </cc:Work>
    </rdf:RDF>
  </metadata>
  <g
     transform="translate(0,-207)"
     id="layer1">
    <g
       id="g4396"
       transform="matrix(0.35277777,0,0,-0.35277777,-245.83331,632.27384)">
      <path
         id="path116"
         style="fill:#28292a;fill-opacity:1;fill-rule:nonzero;stroke:none;stroke-width:0.1"
         d="m 886.928,1054.53 c -0.274,-3.32 -0.94,-21.37 -18.696,-24.77 -20.098,-3.84 -29.375,4.82 -31.238,16 -0.822,4.93 -3.508,17.76 0.548,21.71 4.055,3.94 17.975,7.56 35.293,5.48 16.903,-2.04 14.502,-13.48 14.093,-18.42 z m -72.44,-8.77 c -1.863,-11.18 -11.14,-19.84 -31.238,-16 -17.756,3.4 -18.422,21.45 -18.697,24.77 -0.408,4.94 -2.809,16.38 14.094,18.42 17.317,2.08 31.237,-1.54 35.293,-5.48 4.055,-3.95 1.37,-16.78 0.548,-21.71 z m 83.486,23.47 c -0.153,0.69 -0.649,1.24 -1.3,1.53 -6.311,2.76 -16.064,9.05 -37.028,8.21 -16.004,-0.63 -26.628,-4.5 -31.257,-6.57 -1.694,-0.76 -3.602,-0.76 -5.296,0 -4.629,2.07 -15.253,5.94 -31.257,6.57 -20.964,0.84 -30.717,-5.45 -37.028,-8.21 -0.651,-0.29 -1.147,-0.84 -1.3,-1.53 -0.414,-1.87 -0.723,-5.82 2.439,-9.92 0.404,-0.53 1.053,-0.82 1.716,-0.82 h 2.314 c 0,0 1.169,-20.73 11.399,-27.74 10.23,-7.02 26.939,-6.71 34.636,-2.78 5.428,2.77 9.207,7.16 11.107,13.74 1.899,6.58 1.674,16.07 8.622,16.07 6.205,0 6.723,-9.49 8.622,-16.07 1.9,-6.58 5.679,-10.97 11.107,-13.74 7.697,-3.93 24.406,-4.24 34.636,2.78 10.23,7.01 11.399,27.74 11.399,27.74 h 2.314 c 0.663,0 1.312,0.29 1.716,0.82 3.162,4.1 2.853,8.05 2.439,9.92" />
      <path
         id="path118"
         style="fill:#28292a;fill-opacity:1;fill-rule:nonzero;stroke:none;stroke-width:0.1"
         d="m 772.912,1079.05 c 0,0 13.51,1.87 26.579,0 13.07,-1.87 14.832,-2.6 14.832,-2.6 0,0 -0.734,6.02 -1.762,6.9 -1.028,0.88 -3.525,2.06 -6.315,1.62 -2.79,-0.44 -17.034,-2.35 -22.614,-2.65 -5.581,-0.29 -9.399,-1.07 -10.72,-1.56 -1.322,-0.49 0,-1.71 0,-1.71" />
      <path
         id="path120"
         style="fill:#28292a;fill-opacity:1;fill-rule:nonzero;stroke:none;stroke-width:0.1"
         d="m 841.049,1081.74 c 0,0 12.629,-1.76 14.098,-1.76 1.468,0 16.153,0.29 19.237,0 l 0.734,0.88 c 0,0 -7.93,2.39 -13.07,4.2 -5.139,1.82 -14.537,4.02 -17.034,4.17 -2.496,0.14 -3.671,-1.03 -3.965,-2.35 -0.293,-1.32 -0.881,-4.26 0,-5.14" />
      <path
         id="path122"
         style="fill:#28292a;fill-opacity:1;fill-rule:nonzero;stroke:none;stroke-width:0.1"
         d="m 767.919,1077.77 -7.489,-2.49 c 0,0 -5.543,24.23 -7.177,31.72 -1.634,7.48 -0.019,15.71 2.037,18.64 2.056,2.94 23.349,27.91 35.097,39.51 11.747,11.6 19.53,17.62 20.705,17.77 1.175,0.14 3.231,-4.56 3.231,-4.56 0,0 1.615,5.14 1.028,8.37 -0.588,3.23 -0.734,5.88 -0.734,5.88 0,0 9.104,-0.88 14.391,-9.99 0,0 0.587,4.99 -1.175,8.81 0,0 6.902,-1.17 11.454,-10.72 0,0 1.469,3.97 0,6.02 0,0 4.699,0.15 11.16,-8.22 0,0 2.203,1.76 4.112,-0.44 1.909,-2.2 20.706,-24.52 32.013,-45.96 0,0 6.608,-11.02 7.636,-12.93 1.028,-1.91 -3.084,-35.09 -4.258,-43.9 0,0 -4.846,2.05 -7.49,2.79 0,0 3.965,17.32 -2.056,34.06 0,0 -0.734,5.58 -11.747,1.91 -11.014,-3.67 -27.68,-7.49 -42.916,-6.75 -15.236,0.73 -40.053,6.9 -44.753,6.75 -4.699,-0.14 -14.831,-4.4 -15.419,-6.31 -0.587,-1.91 -0.587,-20.85 2.35,-29.96" />
      <path
         id="path124"
         style="fill:#28292a;fill-opacity:1;fill-rule:nonzero;stroke:none;stroke-width:0.1"
         d="m 753.968,1059.71 c 0,0 -0.569,1.76 -1.386,1.76 -0.816,0 -5.222,-2.05 -4.194,-6.02 1.028,-3.96 5.14,-11.6 6.608,-17.33 1.469,-5.72 4.259,-10.42 7.49,-11.3 3.23,-0.89 3.965,0.44 4.552,2.05 0,0 -2.203,-1.91 -4.406,-0.73 -2.202,1.17 -4.405,4.99 -6.608,10.86 -2.202,5.88 -6.314,17.33 -6.021,18.36 0.294,1.03 2.222,2.5 2.579,2.35 0.358,-0.15 1.386,0 1.386,0" />
      <path
         id="path126"
         style="fill:#28292a;fill-opacity:1;fill-rule:nonzero;stroke:none;stroke-width:0.1"
         d="m 895.677,1058.09 1.468,1.33 c 0,0 0.846,-3.23 1.084,-4.56 0.238,-1.32 0.238,-8.22 -2.552,-14.83 -2.79,-6.61 -6.462,-14.53 -7.93,-14.83 -1.469,-0.29 -4.259,0.76 -5.287,1.33 -1.028,0.58 0,2.2 1.175,1.31 1.175,-0.88 2.056,-2.2 3.671,-0.29 1.616,1.91 5.467,8.66 7.066,13.66 1.598,4.99 2.48,7.74 2.333,10.92 -0.147,3.17 -1.028,5.96 -1.028,5.96" />
      <path
         id="path128"
         style="fill:#28292a;fill-opacity:1;fill-rule:nonzero;stroke:none;stroke-width:0.1"
         d="m 769.681,1028.73 c 0.312,1.34 1.175,-2.5 0.881,-3.53 -0.294,-1.03 -2.349,-18.21 -0.881,-19.38 1.469,-1.18 13.804,-12.34 27.02,-25.7 13.216,-13.36 15.125,-15.57 17.769,-16.15 2.643,-0.59 9.985,0.14 14.831,0 4.846,-0.15 11.601,-1.18 14.098,0.88 2.496,2.05 19.677,20.7 24.964,26.87 5.286,6.17 14.134,14.83 13.675,17.62 -0.459,2.79 -3.836,16.18 -3.249,17.19 0.588,1.02 1.615,1.17 1.615,1.17 0,0 3.084,-15.86 3.084,-19.68 0,-3.82 -16.3,-19.83 -26.579,-31.72 -10.28,-11.89 -9.398,-14.39 -19.384,-14.54 -9.986,-0.14 -23.349,-1.61 -25.258,0 -1.909,1.62 -13.51,14.1 -19.678,20.27 -6.167,6.16 -23.789,19.53 -24.964,24.23 -1.174,4.7 1.175,18.65 2.056,22.47" />
      <path
         id="path130"
         style="fill:#28292a;fill-opacity:1;fill-rule:nonzero;stroke:none;stroke-width:0.1"
         d="m 819.463,1020.06 c -1.125,-0.55 -2.056,-0.88 -0.588,-1.76 1.469,-0.88 5.727,-3.08 9.545,-2.79 3.818,0.29 6.609,2.35 8.224,4.55 0,0 -6.35,-3.4 -9.269,-2.29 -2.92,1.12 -6.766,2.86 -7.912,2.29" />
      <path
         id="path132"
         style="fill:#28292a;fill-opacity:1;fill-rule:nonzero;stroke:none;stroke-width:0.1"
         d="m 814.91,999.65 c -0.972,-0.72 -2.496,-2.35 0,-2.35 2.497,0 4.334,2.2 10.831,1.17 6.497,-1.02 10.169,-2.05 14.868,0 4.699,2.06 5.727,3.97 5.727,3.97 0,0 -3.818,-3.23 -9.692,-3.53 -5.874,-0.29 -10.72,1.47 -13.217,1.62 -2.496,0.15 -7.342,-0.01 -8.517,-0.88" />
      <path
         id="path134"
         style="fill:#28292a;fill-opacity:1;fill-rule:nonzero;stroke:none;stroke-width:0.1"
         d="m 849.126,1008.17 c 0,0 1.909,-0.3 3.818,-1.62 1.909,-1.32 1.909,-2.35 1.909,-2.35 0,0 -1.615,-0.59 -2.864,0.59 -1.248,1.17 -1.248,3.08 -2.863,3.38" />
      <path
         id="path136"
         style="fill:#28292a;fill-opacity:1;fill-rule:nonzero;stroke:none;stroke-width:0.1"
         d="m 818.119,983.2 c 0.798,2.12 9.567,4.41 12.945,4.41 0,0 -8.077,-3.82 -9.692,-5.58 -1.616,-1.76 -3.863,-0.44 -3.253,1.17" />
      <path
         id="path138"
         style="fill:#28292a;fill-opacity:1;fill-rule:nonzero;stroke:none;stroke-width:0.1"
         d="m 798.249,1057.04 -5.512,-5.26 2.239,7.26 c -0.713,0.22 -1.455,0.38 -2.239,0.38 -4.218,0 -7.637,-3.42 -7.637,-7.64 0,-4.22 3.419,-7.64 7.637,-7.64 4.217,0 7.635,3.42 7.635,7.64 0,2.04 -0.815,3.89 -2.123,5.26" />
      <path
         id="path140"
         style="fill:#28292a;fill-opacity:1;fill-rule:nonzero;stroke:none;stroke-width:0.1"
         d="m 862.569,1057.04 -5.513,-5.26 2.24,7.26 c -0.714,0.22 -1.455,0.38 -2.24,0.38 -4.218,0 -7.636,-3.42 -7.636,-7.64 0,-4.22 3.418,-7.64 7.636,-7.64 4.217,0 7.635,3.42 7.635,7.64 0,2.04 -0.814,3.89 -2.122,5.26" />
    </g>
  </g>
</svg>
