<?xml version="1.0" encoding="UTF-8" standalone="no"?>
<svg
   xmlns:dc="http://purl.org/dc/elements/1.1/"
   xmlns:cc="http://creativecommons.org/ns#"
   xmlns:rdf="http://www.w3.org/1999/02/22-rdf-syntax-ns#"
   xmlns:svg="http://www.w3.org/2000/svg"
   xmlns="http://www.w3.org/2000/svg"
   id="svg2334"
   version="1.1"
   viewBox="0 0 90 90"
   height="90mm"
   width="90mm">
  <defs
     id="defs2328" />
  <metadata
     id="metadata2331">
    <rdf:RDF>
      <cc:Work
         rdf:about="">
        <dc:format>image/svg+xml</dc:format>
        <dc:type
           rdf:resource="http://purl.org/dc/dcmitype/StillImage" />
        <dc:title></dc:title>
      </cc:Work>
    </rdf:RDF>
  </metadata>
  <g
     transform="translate(0,-207)"
     id="layer1">
    <g
       id="g4960"
       transform="matrix(0.35277777,0,0,-0.35277777,-160.63843,430.75649)">
      <path
         id="path542"
         style="fill:#28292a;fill-opacity:1;fill-rule:nonzero;stroke:none;stroke-width:0.1"
         d="m 644.816,500.26 c -1.168,-9.27 -4.471,-14.18 -9.5,-18.1 -5.03,-3.91 -15.15,-5.92 -23.331,-2.48 -9.78,4.13 -13.936,9.85 -16.032,15.72 -1.226,3.43 -4.846,15.85 2.48,21.83 7.327,5.98 16.412,7.12 23.261,6.85 10.339,-0.42 15.019,-3.43 17.603,-4.96 2.585,-1.54 6.706,-9.43 5.519,-18.86 z m -70.308,-4.86 c -2.095,-5.87 -6.252,-11.59 -16.031,-15.72 -8.181,-3.44 -18.302,-1.43 -23.331,2.48 -5.03,3.92 -8.333,8.83 -9.5,18.1 -1.188,9.43 2.934,17.32 5.518,18.86 2.585,1.53 7.265,4.54 17.603,4.96 6.849,0.27 15.935,-0.87 23.261,-6.85 7.327,-5.98 3.706,-18.4 2.48,-21.83 z m 75.958,24.11 c -3.222,1.3 -16.034,6.16 -30.099,6.94 -14.13,0.79 -21.784,-5.53 -24.517,-8.12 -0.586,-0.56 -1.391,-0.82 -2.192,-0.71 -1.969,0.27 -5.785,0.75 -8.427,0.8 -2.642,-0.05 -6.459,-0.53 -8.428,-0.8 -0.8,-0.11 -1.606,0.15 -2.192,0.71 -2.732,2.59 -10.387,8.91 -24.517,8.12 -14.064,-0.78 -26.877,-5.64 -30.099,-6.94 -0.471,-0.19 -0.776,-0.65 -0.776,-1.16 v -4.37 c 0,-0.62 0.461,-1.14 1.075,-1.23 1.999,-0.33 2.977,-1.46 2.977,-1.46 -0.28,-4.89 -0.21,-12.43 1.327,-17.39 1.537,-4.96 5.449,-15.79 19.349,-17.95 13.901,-2.17 22.773,3.28 29.339,11.94 5.619,7.41 5.816,19.23 5.755,22.48 -0.011,0.64 0.425,1.19 1.049,1.32 1.791,0.37 5.141,0.37 5.141,0.37 0,0 3.35,0 5.141,-0.37 0.623,-0.13 1.06,-0.68 1.048,-1.32 -0.06,-3.25 0.136,-15.07 5.756,-22.48 6.566,-8.66 15.437,-14.11 29.338,-11.94 13.901,2.16 17.813,12.99 19.35,17.95 1.536,4.96 1.606,12.5 1.327,17.39 0,0 0.977,1.13 2.977,1.46 0.614,0.09 1.074,0.61 1.074,1.23 v 4.37 c 0,0.51 -0.305,0.97 -0.776,1.16" />
      <path
         id="path544"
         style="fill:#28292a;fill-opacity:1;fill-rule:nonzero;stroke:none;stroke-width:0.1"
         d="m 517.454,514.64 c 0,0 0.441,-1.22 0,-1.55 -0.44,-0.33 -4.846,-2.75 -5.396,-4.73 -0.551,-1.98 0.661,-12.78 1.872,-18.06 1.211,-5.29 4.956,-7.82 7.159,-8.93 2.203,-1.1 2.974,-0.99 1.542,-1.65 -1.432,-0.66 -7.49,-0.22 -10.243,7.38 -2.753,7.6 -3.414,21.26 -1.982,23.57 1.431,2.31 4.185,2.97 7.048,3.97" />
      <path
         id="path546"
         style="fill:#28292a;fill-opacity:1;fill-rule:nonzero;stroke:none;stroke-width:0.1"
         d="m 653.032,513.64 -0.661,-1.76 c 0,0 2.662,0.47 2.753,-5.39 0.11,-7.05 -0.991,-17.08 -3.882,-26.22 -1.562,-4.94 -1.845,-7.6 -1.294,-7.6 0.551,0 5.947,13.89 6.498,24.4 0.551,10.52 2.203,16.46 -3.414,16.57" />
      <path
         id="path548"
         style="fill:#28292a;fill-opacity:1;fill-rule:nonzero;stroke:none;stroke-width:0.1"
         d="m 574.064,482.7 c -0.528,0.6 -1.542,-2.09 -1.542,-3.19 0,-1.11 1.542,-2.54 4.516,-2.21 0,0 -1.983,1.22 -2.258,2.21 -0.275,0.98 0.055,2.31 -0.716,3.19" />
      <path
         id="path550"
         style="fill:#28292a;fill-opacity:1;fill-rule:nonzero;stroke:none;stroke-width:0.1"
         d="m 580.012,479.51 c 0,0.99 -1.542,-1.54 -0.661,-2.26 0.881,-0.72 5.727,-2.59 8.48,-0.83 0,0 0.857,1.11 -2.6,0.83 -3.457,-0.28 -5.219,0.39 -5.219,2.26" />
      <path
         id="path552"
         style="fill:#28292a;fill-opacity:1;fill-rule:nonzero;stroke:none;stroke-width:0.1"
         d="m 595.1,479.73 c -1.398,-0.74 -3.304,-1.94 -2.533,-2.02 0.771,-0.08 5.066,1.14 4.626,1.8 -0.441,0.65 -1.03,0.79 -2.093,0.22" />
      <path
         id="path554"
         style="fill:#28292a;fill-opacity:1;fill-rule:nonzero;stroke:none;stroke-width:0.1"
         d="m 579.079,446.9 c 1.003,0.89 9.047,2.09 15.728,0 0,0 -12.152,0.33 -14.355,-1.21 -2.203,-1.54 -2.746,0 -1.373,1.21" />
      <path
         id="path556"
         style="fill:#28292a;fill-opacity:1;fill-rule:nonzero;stroke:none;stroke-width:0.1"
         d="m 586.568,423.66 c -0.789,0.51 -1.735,-1.1 -1.337,-3.74 0.398,-2.64 0.294,-4.85 1.337,-4.3 1.043,0.55 2.041,6.72 0,8.04" />
      <path
         id="path558"
         style="fill:#28292a;fill-opacity:1;fill-rule:nonzero;stroke:none;stroke-width:0.1"
         d="m 618.388,468.05 c -6.333,-0.55 -18.532,3.52 -25.218,4.62 -6.685,1.11 -7.741,-2.2 -7.939,-3.19 -0.199,0.99 -1.254,4.3 -7.94,3.19 -6.686,-1.1 -18.884,-5.17 -25.218,-4.62 -6.333,0.55 -12.316,-23.57 2.346,-37.34 0,0 4.105,-2.86 3.988,2.76 -0.118,5.61 -4.457,19.93 -2.698,22.02 1.76,2.1 11.143,5.84 14.192,5.29 3.05,-0.55 13.651,-3.19 15.33,-0.66 1.678,-2.53 12.279,0.11 15.329,0.66 3.049,0.55 12.433,-3.19 14.192,-5.29 1.76,-2.09 -2.58,-16.41 -2.697,-22.02 -0.118,-5.62 3.987,-2.76 3.987,-2.76 14.662,13.77 8.68,37.89 2.346,37.34" />
      <path
         id="path560"
         style="fill:#28292a;fill-opacity:1;fill-rule:nonzero;stroke:none;stroke-width:0.1"
         d="m 528.468,482.78 c 0,0 -2.753,-30.48 -2.864,-35.77 -0.11,-5.28 30.288,-31.94 33.812,-35.9 3.524,-3.97 8.792,-4.63 27.029,-4.85 18.237,-0.22 21.431,0.44 26.057,4.85 4.625,4.4 21.146,21.03 24.67,24.34 3.524,3.3 7.049,4.21 7.049,9.59 0,5.39 -0.661,26.53 -2.203,38.54 0,0 -0.771,-1.87 -4.295,-4.68 0,0 3.524,-13.94 4.075,-36.62 0,0 -21.917,-20.6 -27.424,-25.33 -5.507,-4.74 -6.939,-7.38 -13.326,-7.71 -6.388,-0.33 -24.451,0.33 -29.517,0.22 -5.066,-0.11 -6.718,0.33 -8.921,1.76 -2.203,1.43 -25.111,23.68 -29.516,30.07 -4.406,6.38 -5.838,4.4 -4.846,13.98 0.991,9.58 2.313,21.41 3.083,24.75 0,0 0.111,-0.56 -2.863,2.76" />
      <path
         id="path562"
         style="fill:#28292a;fill-opacity:1;fill-rule:nonzero;stroke:none;stroke-width:0.1"
         d="m 582.727,555.66 c -35.877,-0.85 -65.105,-13.24 -65.105,-13.24 0,0 18.835,13.95 64.399,14.95 45.564,1 63.489,-8.33 63.489,-8.33 0,0 -26.907,7.47 -62.783,6.62 z m 84.565,-17.51 c -2.562,7.69 -18.935,12.24 -18.935,12.24 -3.274,10.11 -5.836,24.06 -15.233,42.86 -9.396,18.79 -19.219,15.8 -22.636,15.8 -3.417,0 -23.348,-6.84 -29.043,-6.69 -5.695,0.14 -17.084,5.69 -26.907,6.26 -9.823,0.57 -20.785,-6.83 -28.473,-19.79 -7.688,-12.95 -10.82,-46.84 -10.82,-46.84 l -3.417,-1.56 c -5.979,-2.28 -15.376,-10.68 -10.535,-15.45 4.84,-4.78 14.949,-8.04 14.949,-8.04 0,0 -0.286,3.98 0,4.69 0.284,0.72 4.412,2.28 4.412,2.28 0,0 -1.281,5.98 16.088,10.11 17.369,4.13 47.55,7.12 71.753,6.12 24.202,-0.99 33.883,-12.81 33.883,-12.81 4.414,-1.42 10.108,-3.99 12.101,-5.11 1.994,-1.12 1.851,-4 1.851,-4 7.545,3.56 13.525,12.24 10.962,19.93" />
      <path
         id="path564"
         style="fill:#28292a;fill-opacity:1;fill-rule:nonzero;stroke:none;stroke-width:0.1"
         d="m 559.44,507.53 -5.512,-5.26 2.239,7.26 c -0.713,0.22 -1.455,0.37 -2.239,0.37 -4.218,0 -7.637,-3.42 -7.637,-7.63 0,-4.22 3.419,-7.64 7.637,-7.64 4.217,0 7.635,3.42 7.635,7.64 0,2.04 -0.815,3.89 -2.123,5.26" />
      <path
         id="path566"
         style="fill:#28292a;fill-opacity:1;fill-rule:nonzero;stroke:none;stroke-width:0.1"
         d="m 621.998,507.53 -5.513,-5.26 2.239,7.26 c -0.713,0.22 -1.455,0.37 -2.239,0.37 -4.218,0 -7.637,-3.42 -7.637,-7.63 0,-4.22 3.419,-7.64 7.637,-7.64 4.217,0 7.635,3.42 7.635,7.64 0,2.04 -0.815,3.89 -2.122,5.26" />
    </g>
  </g>
</svg>
