<?xml version="1.0" encoding="UTF-8" standalone="no"?>
<svg
   xmlns:dc="http://purl.org/dc/elements/1.1/"
   xmlns:cc="http://creativecommons.org/ns#"
   xmlns:rdf="http://www.w3.org/1999/02/22-rdf-syntax-ns#"
   xmlns:svg="http://www.w3.org/2000/svg"
   xmlns="http://www.w3.org/2000/svg"
   id="svg2334"
   version="1.1"
   viewBox="0 0 512 512"
   height="512mm"
   width="512mm">
  <defs
     id="defs2328" />
  <metadata
     id="metadata2331">
    <rdf:RDF>
      <cc:Work
         rdf:about="">
        <dc:format>image/svg+xml</dc:format>
        <dc:type
           rdf:resource="http://purl.org/dc/dcmitype/StillImage" />
        <dc:title></dc:title>
      </cc:Work>
    </rdf:RDF>
  </metadata>
  <g
     transform="translate(0,215)"
     id="layer1">
    <g
       style="stroke-width:0.16675302"
       id="g3123"
       transform="matrix(2.1155705,0,0,-2.1155705,-982.12136,4081.5224)">
      <g
         style="stroke-width:0.16675302"
         transform="scale(0.117114)"
         id="g320">
        <path
           id="path322"
           style="fill:#28292a;fill-opacity:1;fill-rule:nonzero;stroke:none;stroke-width:0.16675302"
           d="m 5126.61,16239.8 c 0,0 124.13,-68.9 338.54,-60.2 0,0 10.03,28.9 -23.82,47.7 -33.86,18.8 -160.49,72.7 -314.72,12.5" />
      </g>
      <g
         style="stroke-width:0.16675302"
         transform="scale(0.124151)"
         id="g324">
        <path
           id="path326"
           style="fill:#28292a;fill-opacity:1;fill-rule:nonzero;stroke:none;stroke-width:0.16675302"
           d="m 5332.84,15443.6 c 1.18,30.8 -68.59,99.4 -68.59,99.4 4.72,264.9 -260.23,409.3 -260.23,409.3 l 379.69,191.6 -4.74,36.6 -419.9,-221.1 301.62,320.5 -34.3,20.1 -296.64,-312 c 7.56,8.4 42.64,55 -19.17,148.8 -68.6,104.1 -269.69,30.7 -269.69,30.7 -28.39,13 -173.87,74.5 -262.58,-16.5 -88.72,-91.1 43.77,-130.1 43.77,-130.1 -169.15,-62.7 -204.64,-217.7 -204.64,-217.7 -177.42,-34.3 -206.99,-154.9 -190.43,-260.2 16.57,-105.3 113.55,-176.2 113.55,-176.2 l 20.11,8.2 c -49.68,243.7 189.25,222.4 189.25,222.4 121.83,-147.9 392.7,-233 392.7,-233 8.27,1.2 121.83,53.2 255.49,50.8 133.66,-2.3 234.2,-50.8 250.75,-63.8 12.12,-9.5 3.34,-49.4 -5.02,-77.1 1.32,0.5 2.94,0.8 5.02,0.8 7.99,0 12.42,3.5 15.97,-55.9 3.56,-59.4 -26.61,-118 -26.61,-118 -7.69,32.3 -11.38,116.5 -12.22,138.4 -7.29,-3.7 -14.98,-1.8 -14.98,-1.8 0,-54.4 -27.21,-121.8 -27.21,-121.8 26.02,-266.1 132.48,-431.7 132.48,-431.7 -55.6,184.5 -62.69,360.7 -62.69,360.7 63.87,112.4 24.84,202.3 24.84,202.3 0,0 4.73,-3.6 48.49,5.9 43.77,9.5 15.38,114.7 10.65,132.5 -4.74,17.7 -5.92,27.2 -4.74,57.9" />
      </g>
      <g
         style="stroke-width:0.16675302"
         transform="scale(0.116831)"
         id="g328">
        <path
           id="path330"
           style="fill:#28292a;fill-opacity:1;fill-rule:nonzero;stroke:none;stroke-width:0.16675302"
           d="m 4316.4,16033.2 c -27.34,71.7 -16.97,139.5 -11.31,165 5.65,25.4 25.95,23.3 28.27,16 16.97,-52.8 0.95,-108.4 -4.71,-116.9 -5.66,-8.5 3.78,-47.1 10.37,-84.8 6.6,-37.7 4.71,-50.9 -22.62,20.7 z m 192.31,-389.3 c 0,0 -47.14,115.9 -64.11,261.1 -16.96,145.2 -37.7,288.5 -37.7,288.5 0,0 -22.63,0.9 -27.34,16 -4.72,15.1 -16.97,65 -16.97,73.5 0,8.5 -2.83,17 -2.83,17 0,0 -11.31,-39.6 -10.37,-57.5 0,0 -49.96,18.8 -64.1,-56.6 -14.14,-75.4 -3.78,-155.5 75.41,-264.9 0,0 -16.97,-220.6 -70.7,-306.3 0,0 86.73,49.9 103.7,176.2 0,0 47.14,-104.6 87.67,-173.4 0,0 -21.68,68.8 -30.17,131 0,0 32.06,-73.5 57.51,-104.6" />
      </g>
      <g
         style="stroke-width:0.16675302"
         transform="scale(0.114089)"
         id="g332">
        <path
           id="path334"
           style="fill:#28292a;fill-opacity:1;fill-rule:nonzero;stroke:none;stroke-width:0.16675302"
           d="m 5061.76,16297.8 c -3.2,2.2 -7.73,-1.9 -0.64,-7.7 7.07,-5.8 24.45,-19.3 54.7,-9 0,0 10.94,13.5 -5.79,10.9 -16.74,-2.5 -34.11,-3.8 -48.27,5.8" />
      </g>
      <g
         style="stroke-width:0.16675302"
         transform="scale(0.112673)"
         id="g336">
        <path
           id="path338"
           style="fill:#28292a;fill-opacity:1;fill-rule:nonzero;stroke:none;stroke-width:0.16675302"
           d="m 5281.12,16223.1 c -18.9,-18.9 -36.49,-15.6 -66.47,-12.4 -29.97,3.3 -56.04,3.3 -93.84,-0.6 -37.79,-3.9 -34.53,3.9 -47.56,24.7 -13.04,20.9 -54.09,33.3 -54.09,33.3 28.67,1.9 93.19,19.5 99.05,19.5 5.87,0 27.37,-23.4 50.17,-24.1 22.81,-0.6 34.55,18.9 38.45,22.2 3.92,3.2 18.74,-8.7 59.31,-16.3 41.7,-7.8 63.21,0 63.21,0 -18.9,-8.5 -29.33,-27.4 -48.23,-46.3 z m 20.21,52.1 c -28.68,0.7 -41.06,4.6 -61.26,10.5 -20.2,5.8 -35.19,14.3 -39.75,7.8 -4.56,-6.5 -16.3,-22.2 -37.15,-17.6 -20.85,4.6 -37.8,19.5 -45.61,18.9 -7.83,-0.7 -63.86,-18.3 -95.14,-18.3 -31.28,0 -37.15,-1.9 -47.58,1.3 0,0 74.29,-33.2 83.42,-54 9.12,-20.9 28.02,-33.3 72.98,-26.8 44.96,6.6 33.89,5.9 50.18,5.9 16.29,0 59.95,-7.8 80.8,-2.6 20.86,5.2 41.72,37.1 50.18,46.9 8.47,9.8 62.56,35.2 62.56,35.2 0,0 -46.15,-7.8 -73.63,-7.2" />
      </g>
      <g
         style="stroke-width:0.16675302"
         transform="scale(0.114691)"
         id="g340">
        <path
           id="path342"
           style="fill:#28292a;fill-opacity:1;fill-rule:nonzero;stroke:none;stroke-width:0.16675302"
           d="m 4549.93,16273.1 c 1.28,7.7 7.68,1.3 8.96,-6.4 1.29,-7.7 6.4,-167.7 81.95,-256.1 75.54,-88.3 197.18,-189.5 252.23,-235.5 55.06,-46.1 110.11,-102.5 177.98,-98.6 67.85,3.8 103.73,17.8 174.12,84.5 72.99,69.1 199.75,202.3 262.48,277.8 59.23,71.3 75.55,140.9 76.83,180.5 1.28,39.7 -5.12,55.1 2.56,67.9 7.68,12.8 11.52,10.2 12.8,-10.2 1.28,-20.5 17.93,-114 -55.05,-210 -76.56,-100.8 -176.7,-203.6 -265.05,-295.8 -87.7,-91.5 -140.56,-105 -216.38,-105 -88.35,0 -101.15,32 -227.9,140.9 -125.76,107.9 -235.6,192 -259.92,279.1 -24.33,87 -30.74,156.2 -25.61,186.9" />
      </g>
      <g
         style="stroke-width:0.16675302"
         transform="scale(0.117452)"
         id="g344">
        <path
           id="path346"
           style="fill:#28292a;fill-opacity:1;fill-rule:nonzero;stroke:none;stroke-width:0.16675302"
           d="m 5451.2,16027.1 c -39.81,-217.8 -268.44,-172.7 -330.04,-126.9 -61.59,45.7 -81.19,153.9 -83.98,206.2 -2.8,52.3 60.65,117.6 185.7,126.9 125.06,9.3 211.84,-32.6 233.31,-56.9 21.46,-24.3 2.8,-106.8 -4.99,-149.3 z m -677.8,-126.9 c -61.59,-45.8 -290.23,-90.9 -330.06,126.9 -7.77,42.5 -26.43,125 -4.97,149.3 21.47,24.3 108.25,66.2 233.31,56.9 125.04,-9.3 188.5,-74.6 185.7,-126.9 -2.79,-52.3 -22.39,-160.5 -83.98,-206.2 z m 764.84,322.5 c -36.73,21.2 -152.06,77.3 -314.74,57 -133.86,-16.8 -212.6,-45.3 -249.81,-62.2 -8.42,-3.8 -17.42,-5.8 -26.41,-5.8 -9,0 -17.99,2 -26.41,5.8 -37.22,16.9 -115.95,45.4 -249.82,62.2 -162.68,20.3 -278,-35.8 -314.74,-57 -7.56,-4.4 -11.35,-13.1 -9.53,-21.7 l 12.81,-60 c 2.29,-10.8 12.76,-17.7 23.57,-15.7 l 6.68,1.3 c 0,0 19.08,-106 40.05,-165.4 35.18,-99.6 135.4,-141.9 244.9,-129.5 109.48,12.5 146.82,53.5 182.9,129.4 36.09,75.9 43.55,126.9 89.59,128.2 46.04,-1.3 53.5,-52.3 89.59,-128.2 36.08,-75.9 73.4,-116.9 182.9,-129.4 109.5,-12.4 209.72,29.9 244.9,129.5 20.98,59.4 40.05,165.4 40.05,165.4 l 6.68,-1.3 c 10.8,-2 21.28,4.9 23.57,15.7 l 12.81,60 c 1.82,8.6 -1.98,17.3 -9.54,21.7" />
      </g>
      <g
         style="stroke-width:0.16675302"
         transform="scale(0.113041)"
         id="g348">
        <path
           id="path350"
           style="fill:#28292a;fill-opacity:1;fill-rule:nonzero;stroke:none;stroke-width:0.16675302"
           d="m 4958.66,16224.9 c 0,0 114.54,67.2 145.61,65.3 31.07,-2 23.18,-12.7 45.15,-10.7 21.97,1.9 33.65,20.5 66.78,10.7 33.13,-9.8 88.66,-56.2 141.28,-60.8 l -17.54,-4.5 c 0,0 -113.03,56.5 -141.28,56.5 -24.24,0 -33.04,-9.7 -49.24,-11.7 -35.27,-4.2 -44.37,13 -74.47,2.4 -38.52,-13.6 -97.04,-56.3 -104.18,-52.9 -7.14,3.4 -12.11,5.7 -12.11,5.7" />
      </g>
      <g
         style="stroke-width:0.16675302"
         transform="scale(0.116205)"
         id="g352">
        <path
           id="path354"
           style="fill:#28292a;fill-opacity:1;fill-rule:nonzero;stroke:none;stroke-width:0.16675302"
           d="m 4790.85,16279.6 -47.44,-45.3 19.27,62.5 c -6.14,1.9 -12.52,3.2 -19.27,3.2 -36.3,0 -65.72,-29.4 -65.72,-65.7 0,-36.3 29.42,-65.7 65.72,-65.7 36.28,0 65.71,29.4 65.71,65.7 0,17.6 -7.02,33.5 -18.27,45.3" />
      </g>
      <g
         style="stroke-width:0.16675302"
         transform="scale(0.116205)"
         id="g356">
        <path
           id="path358"
           style="fill:#28292a;fill-opacity:1;fill-rule:nonzero;stroke:none;stroke-width:0.16675302"
           d="m 5298.86,16279.6 -47.45,-45.3 19.28,62.5 c -6.13,1.9 -12.52,3.2 -19.28,3.2 -36.29,0 -65.71,-29.4 -65.71,-65.7 0,-36.3 29.42,-65.7 65.71,-65.7 36.29,0 65.72,29.4 65.72,65.7 0,17.6 -7.02,33.5 -18.27,45.3" />
      </g>
    </g>
  </g>
</svg>
