<?xml version="1.0" encoding="UTF-8" standalone="no"?>
<svg
   xmlns:dc="http://purl.org/dc/elements/1.1/"
   xmlns:cc="http://creativecommons.org/ns#"
   xmlns:rdf="http://www.w3.org/1999/02/22-rdf-syntax-ns#"
   xmlns:svg="http://www.w3.org/2000/svg"
   xmlns="http://www.w3.org/2000/svg"
   id="svg2334"
   version="1.1"
   viewBox="0 0 90 90"
   height="90mm"
   width="90mm">
  <defs
     id="defs2328" />
  <metadata
     id="metadata2331">
    <rdf:RDF>
      <cc:Work
         rdf:about="">
        <dc:format>image/svg+xml</dc:format>
        <dc:type
           rdf:resource="http://purl.org/dc/dcmitype/StillImage" />
        <dc:title></dc:title>
      </cc:Work>
    </rdf:RDF>
  </metadata>
  <g
     transform="translate(0,-207)"
     id="layer1">
    <g
       style="stroke-width:1.05545104"
       id="g4220"
       transform="matrix(0.33424362,0,0,-0.33424362,-69.813181,614.21324)">
      <path
         id="path842"
         style="fill:#28292a;fill-opacity:1;fill-rule:nonzero;stroke:none;stroke-width:0.1055451"
         d="m 399.352,1055.6 c -1.167,-9.27 -4.47,-14.18 -9.5,-18.1 -5.029,-3.91 -15.15,-5.92 -23.331,-2.48 -9.78,4.13 -13.936,9.85 -16.031,15.72 -1.226,3.43 -4.847,15.85 2.479,21.83 7.327,5.98 16.413,7.12 23.262,6.85 10.338,-0.42 15.018,-3.43 17.603,-4.96 2.584,-1.54 6.706,-9.43 5.518,-18.86 z m -70.307,-4.86 c -2.096,-5.87 -6.252,-11.59 -16.032,-15.72 -8.181,-3.44 -18.301,-1.43 -23.331,2.48 -5.029,3.92 -8.333,8.83 -9.5,18.1 -1.187,9.43 2.934,17.32 5.519,18.86 2.584,1.53 7.264,4.54 17.603,4.96 6.848,0.27 15.934,-0.87 23.261,-6.85 7.326,-5.98 3.705,-18.4 2.48,-21.83 z m 75.958,24.11 c -3.222,1.3 -16.035,6.16 -30.1,6.94 -14.13,0.79 -21.784,-5.53 -24.516,-8.12 -0.586,-0.56 -1.392,-0.82 -2.192,-0.71 -1.969,0.27 -5.786,0.75 -8.428,0.8 -2.642,-0.05 -6.459,-0.53 -8.427,-0.8 -0.801,-0.11 -1.606,0.15 -2.192,0.71 -2.733,2.59 -10.387,8.91 -24.517,8.12 -14.065,-0.78 -26.878,-5.64 -30.099,-6.94 -0.471,-0.19 -0.776,-0.65 -0.776,-1.16 v -4.37 c 0,-0.62 0.46,-1.14 1.074,-1.23 1.999,-0.33 2.977,-1.46 2.977,-1.46 -0.279,-4.89 -0.209,-12.43 1.327,-17.39 1.537,-4.96 5.449,-15.79 19.35,-17.95 13.901,-2.17 22.772,3.28 29.338,11.94 5.62,7.42 5.816,19.23 5.756,22.48 -0.012,0.64 0.425,1.19 1.048,1.32 1.791,0.37 5.141,0.37 5.141,0.37 0,0 3.35,0 5.141,-0.37 0.623,-0.13 1.06,-0.68 1.048,-1.32 -0.06,-3.25 0.136,-15.06 5.756,-22.48 6.566,-8.66 15.438,-14.11 29.339,-11.94 13.9,2.16 17.812,12.99 19.349,17.95 1.537,4.96 1.607,12.5 1.327,17.39 0,0 0.978,1.13 2.977,1.46 0.614,0.09 1.075,0.61 1.075,1.23 v 4.37 c 0,0.51 -0.305,0.97 -0.776,1.16" />
      <path
         id="path844"
         style="fill:#28292a;fill-opacity:1;fill-rule:nonzero;stroke:none;stroke-width:0.1055451"
         d="m 315.243,1061.25 -5.512,-5.26 2.239,7.26 c -0.713,0.22 -1.455,0.38 -2.239,0.38 -4.218,0 -7.637,-3.42 -7.637,-7.64 0,-4.22 3.419,-7.64 7.637,-7.64 4.217,0 7.635,3.42 7.635,7.64 0,2.04 -0.815,3.89 -2.123,5.26" />
      <path
         id="path846"
         style="fill:#28292a;fill-opacity:1;fill-rule:nonzero;stroke:none;stroke-width:0.1055451"
         d="m 374.276,1061.25 -5.512,-5.26 2.239,7.26 c -0.713,0.22 -1.455,0.38 -2.239,0.38 -4.218,0 -7.637,-3.42 -7.637,-7.64 0,-4.22 3.419,-7.64 7.637,-7.64 4.217,0 7.635,3.42 7.635,7.64 0,2.04 -0.815,3.89 -2.123,5.26" />
      <path
         id="path848"
         style="fill:#28292a;fill-opacity:1;fill-rule:nonzero;stroke:none;stroke-width:0.1055451"
         d="m 402.152,1084.06 c -22.793,0.9 -28.701,18.82 -39.189,38.74 -9.855,18.73 -21.996,5.89 -24.442,2.98 -0.15,-0.19 -0.297,-0.35 -0.449,-0.55 0,0 0.162,0.21 0.449,0.55 16.269,20.57 27.085,-2.76 27.085,-2.76 11.546,-32.94 29.102,-38.25 36.546,-38.96 1.143,-0.05 2.314,-0.07 3.544,-0.02 0,0 -1.33,-0.19 -3.544,0.02 z m -115.623,40.73 c 27.754,44.49 56.389,18.5 56.389,18.5 2.203,-1.98 -0.661,-2.86 -0.661,-2.86 -29.075,20.48 -55.728,-15.64 -55.728,-15.64 z m -19.384,-31.28 c 0,0 7.269,-14.1 26.432,0.88 0,0 -18.062,-20.05 -26.432,-0.88 z m 68.284,67.84 c 0,0 21.986,27.7 64.197,1.18 -2.336,1.39 -38.756,22.39 -61.774,-3.82 0,0 -3.084,-0.66 -2.423,2.64 z m 117.846,-158.81 c -3.305,7.04 -6.609,21.14 -11.675,28.85 -5.066,7.71 -16.961,3.31 -16.961,3.31 0.22,1.98 -5.507,7.04 -5.507,7.04 0,0 3.525,0 10.353,3.97 6.829,3.96 7.489,12.11 7.489,12.11 -12.335,-5.28 -15.859,7.27 -15.859,7.27 5.947,0 10.132,8.59 10.132,8.59 -5.947,-1.54 -11.894,2.43 -11.894,2.43 20.044,3.74 21.807,16.96 21.807,16.96 -11.014,-5.51 -13.877,-0.22 -13.877,-0.22 2.202,0 1.982,1.1 1.982,1.1 l -2.203,0.66 c 9.031,1.32 12.556,5.73 12.556,5.73 -12.556,-1.32 -13.657,7.49 -15.419,13.21 -1.763,5.73 1.982,14.32 -12.115,38.33 -14.098,24.01 -36.786,24.01 -36.786,24.01 0,0 4.185,2.2 -14.978,2.42 -19.164,0.22 -33.702,-7.93 -33.702,-7.93 0,0 2.423,2.21 -16.961,1.99 -19.384,-0.22 -26.873,-11.46 -26.873,-11.46 -21.807,-12.33 -23.789,-31.06 -23.789,-31.06 -6.609,-8.81 -4.186,-13.87 -4.186,-17.4 0,-3.52 -7.048,-4.62 -7.048,-4.62 0.44,-1.55 0.661,-2.21 6.608,-5.95 5.947,-3.75 9.031,-9.47 9.031,-9.47 -3.084,-3.75 -6.168,-2.87 -8.591,-2.65 -2.423,0.22 -4.185,5.29 -4.185,5.29 -3.524,-2.2 -2.863,-5.51 -2.863,-5.51 -3.965,1.55 -7.489,6.83 -7.489,6.83 -1.983,-4.18 0.881,-9.91 0.881,-9.91 -1.322,-2.86 0,-5.73 0,-5.73 4.625,-14.32 17.401,-13.87 17.401,-13.87 -1.101,-1.77 -2.423,-2.87 -2.423,-2.87 0,0 4.846,1.54 0.881,-0.44 -3.965,-1.98 -6.828,-1.54 -6.828,-1.54 1.762,-4.19 2.863,-3.74 2.863,-3.74 -3.083,-4.19 -7.489,-4.85 -7.489,-4.85 5.287,-5.73 18.943,-3.97 18.943,-3.97 0,-1.76 1.322,-3.74 1.322,-3.74 -1.542,-1.54 -1.322,-4.41 -1.322,-4.41 -27.534,-2.86 -32.82,-20.7 -34.362,-30.83 -1.542,-10.14 -7.93,-20.93 -7.93,-20.93 0,0 0.661,0.88 5.727,2.42 5.067,1.55 25.552,-12.77 41.852,-0.44 16.3,12.34 9.912,34.81 9.912,34.81 l 3.745,-0.22 2.423,2.64 c 0,0 -8.15,-2.86 -14.758,13.88 -4.232,10.72 3.524,17.84 3.524,17.84 -8.37,0.44 -6.828,8.81 -6.828,8.81 2.863,-0.44 3.744,2.2 3.744,2.2 -6.388,4.41 -4.626,8.81 -4.626,8.81 10.794,-5.95 20.706,-3.3 32.381,2.87 11.674,6.16 15.418,26.87 22.027,33.04 6.608,6.16 14.978,1.76 14.978,1.76 0,0 1.101,1.1 5.287,5.73 4.185,4.62 10.793,-10.14 19.604,-23.79 8.811,-13.66 17.842,-18.51 26.212,-20.93 8.371,-2.42 23.349,-4.63 23.349,-4.63 0,0 0,-5.06 0,-8.15 0,-3.08 -1.101,-3.74 -2.203,-3.74 -1.101,0 -1.542,-1.1 -1.542,-1.1 0,0 3.745,-7.05 2.423,-15.42 -1.321,-8.37 -9.471,-14.98 -10.793,-15.64 -1.321,-0.66 0.661,-3.08 2.203,-2.86 1.542,0.22 5.947,3.74 6.388,5.06 0.44,1.32 4.185,-0.88 3.304,-2.42 -0.881,-1.54 3.304,-7.27 3.304,-7.27 0,0 -3.745,-11.45 2.203,-26.21 5.947,-14.76 23.569,-16.3 23.569,-16.3 14.317,-1.76 27.313,14.1 27.313,14.1 -4.625,0 -10.352,1.1 -13.656,8.15" />
      <path
         id="path850"
         style="fill:#28292a;fill-opacity:1;fill-rule:nonzero;stroke:none;stroke-width:0.1055451"
         d="m 335.723,1030.44 c -0.709,0.76 -2.203,-1.18 -0.294,-2.35 1.909,-1.18 7.342,-4.41 13.216,0.14 0,0 -8.81,-2.2 -12.922,2.21" />
      <path
         id="path852"
         style="fill:#28292a;fill-opacity:1;fill-rule:nonzero;stroke:none;stroke-width:0.1055451"
         d="m 366.414,1016.93 c 0.366,0.38 -2.809,-6.47 -9.839,-10.72 -6.314,-3.82 -16.762,-6.96 -18.65,-2.5 -1.615,3.82 2.258,1.62 6.902,2.64 8.664,1.91 12.336,0.89 21.587,10.58" />
      <path
         id="path854"
         style="fill:#28292a;fill-opacity:1;fill-rule:nonzero;stroke:none;stroke-width:0.1055451"
         d="m 339.835,994.9 c 0,0 -1.322,2.79 1.615,2.94 2.937,0.14 8.811,-0.74 10.426,-1.18 0,0 -6.168,0.59 -8.077,0 -1.909,-0.59 -1.762,-2.35 -3.964,-1.76" />
      <path
         id="path856"
         style="fill:#28292a;fill-opacity:1;fill-rule:nonzero;stroke:none;stroke-width:0.1055451"
         d="m 396.812,1024.12 c -0.147,5.44 -0.441,6.46 -0.441,6.46 l -3.232,-0.07 c 0.092,-1.3 0.216,-3.42 0.296,-6.37 0.138,-5.1 -0.551,-10.89 -3.446,-15.02 -2.894,-4.13 -11.99,-13.78 -23.705,-22.74 -11.715,-8.96 -18.33,-8.96 -31.01,-7.03 -12.679,1.93 -37.487,23.02 -41.759,26.88 -3.56,3.21 -3.293,17.21 -3.105,21.79 l -3.294,-0.08 c 0,0 -1.321,-18.8 3.23,-22.91 4.553,-4.11 30.986,-26.58 44.495,-28.63 13.511,-2.06 20.56,-2.06 33.041,7.49 12.483,9.54 22.174,19.82 25.258,24.23 3.084,4.4 3.818,10.57 3.672,16" />
      <path
         id="path858"
         style="fill:#28292a;fill-opacity:1;fill-rule:nonzero;stroke:none;stroke-width:0.1055451"
         d="m 339.688,1051.51 c 0,-0.53 -0.428,-0.95 -0.955,-0.95 -0.527,0 -0.954,0.42 -0.954,0.95 0,0.53 0.427,0.95 0.954,0.95 0.527,0 0.955,-0.42 0.955,-0.95" />
      <path
         id="path860"
         style="fill:#28292a;fill-opacity:1;fill-rule:nonzero;stroke:none;stroke-width:0.1055451"
         d="m 346.736,1041.74 c 0,-0.48 -0.394,-0.88 -0.881,-0.88 -0.486,0 -0.881,0.4 -0.881,0.88 0,0.49 0.395,0.89 0.881,0.89 0.487,0 0.881,-0.4 0.881,-0.89" />
      <path
         id="path862"
         style="fill:#28292a;fill-opacity:1;fill-rule:nonzero;stroke:none;stroke-width:0.1055451"
         d="m 334.988,1039.62 c 0,-0.45 -0.361,-0.81 -0.807,-0.81 -0.446,0 -0.808,0.36 -0.808,0.81 0,0.44 0.362,0.8 0.808,0.8 0.446,0 0.807,-0.36 0.807,-0.8" />
      <path
         id="path864"
         style="fill:#28292a;fill-opacity:1;fill-rule:nonzero;stroke:none;stroke-width:0.1055451"
         d="m 327.646,1033.81 c 0,-0.48 -0.394,-0.88 -0.881,-0.88 -0.487,0 -0.881,0.4 -0.881,0.88 0,0.49 0.394,0.89 0.881,0.89 0.487,0 0.881,-0.4 0.881,-0.89" />
      <path
         id="path866"
         style="fill:#28292a;fill-opacity:1;fill-rule:nonzero;stroke:none;stroke-width:0.1055451"
         d="m 353.785,1033.67 c 0,-0.49 -0.394,-0.88 -0.881,-0.88 -0.487,0 -0.881,0.39 -0.881,0.88 0,0.48 0.394,0.88 0.881,0.88 0.487,0 0.881,-0.4 0.881,-0.88" />
    </g>
  </g>
</svg>
